<svg width="128" height="128" viewBox="0 0 128 128" fill="none" xmlns="http://www.w3.org/2000/svg">
<path d="M98.8977 14.2222H105.995V22.7236H98.8977V14.2222Z" fill="#66757F"/>
<path d="M103.111 14.2222H32.0001C28.2281 14.2222 24.6106 15.7206 21.9434 18.3878C19.2762 21.055 17.7778 24.6725 17.7778 28.4445V113.778C17.7778 117.55 19.2762 121.167 21.9434 123.834C24.6106 126.502 28.2281 128 32.0001 128H103.111C106.883 128 110.501 126.502 113.168 123.834C115.835 121.167 117.333 117.55 117.333 113.778V28.4445C117.333 24.6725 115.835 21.055 113.168 18.3878C110.501 15.7206 106.883 14.2222 103.111 14.2222Z" fill="#55ACEE"/>
<path d="M96.0001 14.2222H24.889C21.117 14.2222 17.4995 15.7206 14.8323 18.3878C12.1652 21.055 10.6667 24.6725 10.6667 28.4445V113.778C10.6667 117.55 12.1652 121.167 14.8323 123.834C17.4995 126.502 21.117 128 24.889 128H96.0001C99.7721 128 103.39 126.502 106.057 123.834C108.724 121.167 110.222 117.55 110.222 113.778V28.4445C110.222 24.6725 108.724 21.055 106.057 18.3878C103.39 15.7206 99.7721 14.2222 96.0001 14.2222Z" fill="#104EB1"/>
<path d="M99.5555 53.3333C99.5555 54.2763 99.1809 55.1807 98.5141 55.8475C97.8473 56.5143 96.9429 56.8889 95.9999 56.8889H24.8888C23.9458 56.8889 23.0414 56.5143 22.3747 55.8475C21.7079 55.1807 21.3333 54.2763 21.3333 53.3333C21.3333 52.3903 21.7079 51.486 22.3747 50.8192C23.0414 50.1524 23.9458 49.7778 24.8888 49.7778H95.9999C96.9429 49.7778 97.8473 50.1524 98.5141 50.8192C99.1809 51.486 99.5555 52.3903 99.5555 53.3333ZM99.5555 71.1111C99.5555 72.0541 99.1809 72.9585 98.5141 73.6253C97.8473 74.2921 96.9429 74.6667 95.9999 74.6667H24.8888C23.9458 74.6667 23.0414 74.2921 22.3747 73.6253C21.7079 72.9585 21.3333 72.0541 21.3333 71.1111C21.3333 70.1681 21.7079 69.2637 22.3747 68.5969C23.0414 67.9301 23.9458 67.5555 24.8888 67.5555H95.9999C96.9429 67.5555 97.8473 67.9301 98.5141 68.5969C99.1809 69.2637 99.5555 70.1681 99.5555 71.1111ZM99.5555 88.8889C99.5555 89.8319 99.1809 90.7362 98.5141 91.403C97.8473 92.0698 96.9429 92.4444 95.9999 92.4444H24.8888C23.9458 92.4444 23.0414 92.0698 22.3747 91.403C21.7079 90.7362 21.3333 89.8319 21.3333 88.8889C21.3333 87.9459 21.7079 87.0415 22.3747 86.3747C23.0414 85.7079 23.9458 85.3333 24.8888 85.3333H95.9999C96.9429 85.3333 97.8473 85.7079 98.5141 86.3747C99.1809 87.0415 99.5555 87.9459 99.5555 88.8889ZM71.111 106.667C71.111 107.61 70.7364 108.514 70.0696 109.181C69.4028 109.848 68.4985 110.222 67.5555 110.222H24.8888C23.9458 110.222 23.0414 109.848 22.3747 109.181C21.7079 108.514 21.3333 107.61 21.3333 106.667C21.3333 105.724 21.7079 104.819 22.3747 104.153C23.0414 103.486 23.9458 103.111 24.8888 103.111H67.5555C68.4985 103.111 69.4028 103.486 70.0696 104.153C70.7364 104.819 71.111 105.724 71.111 106.667Z" fill="#99AAB5"/>
<path d="M27.8614 31.0436C25.3654 31.0436 23.3423 28.6756 23.3423 25.7494C23.3423 22.8267 25.3654 20.4551 27.8614 20.4551C30.3538 20.4551 32.377 22.8267 32.377 25.7494C32.377 28.672 30.3538 31.0436 27.8614 31.0436Z" fill="#292F33"/>
<path d="M30.3751 25.184C30.1796 23.4773 29.0453 22.368 27.7831 21.568C26.0587 20.4764 24.2276 17.984 24.2276 14.8942C24.2276 10.9689 26.6133 7.44532 29.5609 7.44532C32.5085 7.44532 34.8942 10.6631 34.8942 14.2187H41.9911C41.9165 7.10754 36.3911 0.632874 29.5609 0.632874C22.6845 0.632874 17.1165 7.10043 17.1165 14.8729C17.1165 21.4613 20.832 26.8587 26.2507 28.832C28.9529 29.8133 30.6027 27.2427 30.3751 25.184Z" fill="#66757F"/>
<path d="M49.1947 31.0436C46.6987 31.0436 44.6755 28.6756 44.6755 25.7494C44.6755 22.8267 46.6987 20.4551 49.1947 20.4551C51.6871 20.4551 53.7102 22.8267 53.7102 25.7494C53.7102 28.672 51.6871 31.0436 49.1947 31.0436Z" fill="#292F33"/>
<path d="M51.7084 25.184C51.5128 23.4773 50.3786 22.368 49.1164 21.568C47.3919 20.4764 45.5608 17.984 45.5608 14.8942C45.5608 10.9689 47.9466 7.44532 50.8942 7.44532C53.8417 7.44532 56.2275 10.6631 56.2275 14.2187H63.3244C63.2533 7.10754 57.7244 0.632874 50.8942 0.632874C44.0177 0.632874 38.4497 7.10043 38.4497 14.8729C38.4497 21.4613 42.1653 26.8587 47.5839 28.832C50.2862 29.8133 51.9359 27.2427 51.7084 25.184Z" fill="#66757F"/>
<path d="M70.5279 31.0436C68.0319 31.0436 66.0088 28.6756 66.0088 25.7494C66.0088 22.8267 68.0319 20.4551 70.5279 20.4551C73.0203 20.4551 75.047 22.8267 75.047 25.7494C75.0435 28.672 73.0203 31.0436 70.5279 31.0436Z" fill="#292F33"/>
<path d="M73.0417 25.184C72.8462 23.4773 71.712 22.368 70.4533 21.568C68.7288 20.4764 66.8977 17.984 66.8977 14.8942C66.8977 10.9689 69.2835 7.44532 72.2311 7.44532C75.1786 7.44532 77.5644 10.6631 77.5644 14.2187H84.6613C84.5902 7.10754 79.0613 0.632874 72.2311 0.632874C65.3546 0.632874 59.7866 7.10043 59.7866 14.8729C59.7866 21.4613 63.5022 26.8587 68.9208 28.832C71.6195 29.8133 73.2693 27.2427 73.0417 25.184Z" fill="#66757F"/>
<path d="M91.8614 31.0436C89.3654 31.0436 87.3423 28.6756 87.3423 25.7494C87.3423 22.8267 89.3654 20.4551 91.8614 20.4551C94.3538 20.4551 96.3805 22.8267 96.3805 25.7494C96.377 28.672 94.3538 31.0436 91.8614 31.0436Z" fill="#292F33"/>
<path d="M94.3752 25.184C94.1797 23.4773 93.0455 22.368 91.7868 21.568C90.0623 20.4764 88.2312 17.984 88.2312 14.8942C88.2312 10.9689 90.617 7.44532 93.5646 7.44532C96.5121 7.44532 98.8979 10.6631 98.8979 14.2187H105.995C105.924 7.10754 100.395 0.632874 93.5646 0.632874C86.6881 0.632874 81.1201 7.10043 81.1201 14.8729C81.1201 21.4613 84.8357 26.8587 90.2543 28.832C92.953 29.8133 94.6028 27.2427 94.3752 25.184Z" fill="#66757F"/>
</svg>
